<?xml version="1.0" encoding="UTF-8"?>
<svg width="128" height="128" version="1.1" viewBox="0 0 128 128" xmlns="http://www.w3.org/2000/svg">
 <circle cx="64" cy="64" r="54" fill="#fff" stroke-width=".07938"/>
 <path d="m58.986 127.91c-0.40309-0.0596-2.318-0.33556-4.2553-0.61323-13.425-1.9241-26.819-8.6703-36.201-18.233-10.196-10.393-16.351-22.981-18.187-37.198-0.58232-4.5083-0.39596-13.742 0.3628-17.975 2.3531-13.129 8.5466-25.109 17.843-34.514 11.116-11.245 26.009-18.084 41.881-19.232 4.1243-0.29813 7.241-0.16405 12.138 0.5222 18.084 2.5341 34.98 13.257 45.036 28.582 7.0062 10.677 10.397 22.073 10.397 34.945 0 21.069-10.179 40.703-27.089 52.252-8.4044 5.74-17.766 9.4351-27.878 11.004-2.4574 0.38126-12.379 0.70512-14.047 0.4585zm-8.8196-13.179c1.6489-0.46178 2.4612-1.1419 3.8943-3.2606 0.29378-0.43436 0.39734-0.4316 2.9813 0.0793 3.3592 0.66417 8.5221 0.89288 11.594 0.51358 2.2626-0.27939 6.6818-1.1113 7.4189-1.3966 0.25175-0.0974 0.52051 0.156 0.85054 0.80202 1.1036 2.1602 2.9836 3.2887 5.4645 3.2799 4.0291-0.0142 6.4541-3.1947 5.7262-7.51l-0.16626-0.98563 1.9328-1.2786c1.9322-1.2782 1.933-1.2784 2.3848-0.7746 1.2429 1.3862 4.3009 2.0758 6.0104 1.3553 2.431-1.0245 3.847-3.1011 3.847-5.6418 0-0.79089-0.16341-1.8324-0.36313-2.3146l-0.36313-0.87659 1.5455-2.2572c2.1422-3.1286 3.8285-6.1702 5.6295-10.154 1.5148-3.3505 1.5495-3.4011 2.5335-3.6942 3.3866-1.0086 5.159-4.2131 4.1706-7.5406-0.35998-1.2119-1.7024-2.8025-2.874-3.4054l-0.90631-0.46636 0.2199-1.9276c0.30598-2.6822 0.0455-8.0012-0.57073-11.653-0.39956-2.3679-0.44908-3.0955-0.21597-3.1739 0.72701-0.24443 2.3113-1.987 2.8343-3.1174 1.0039-2.1697 0.62079-4.3516-1.1139-6.3444-1.0978-1.2611-2.5538-1.9086-4.3127-1.9181l-1.4497-0.0078-1.4617-2.474c-0.80395-1.3607-2.1423-3.3421-2.974-4.403l-1.5123-1.929 0.52027-1.0606c0.70861-1.4446 0.70744-3.9004-2e-3 -5.2718-1.1521-2.2255-2.834-3.1893-5.5799-3.1974-1.7466-0.0052-2.087 0.07136-2.9874 0.67175-0.5589 0.37269-1.1067 0.67762-1.2172 0.67762s-1.2947-0.72769-2.6314-1.6171c-1.3367-0.8894-3.7771-2.2817-5.423-3.094-2.6745-1.3199-2.9926-1.5445-2.9926-2.112 0-2.9913-2.924-5.7388-6.1074-5.7388-2.345 0-4.3408 1.2409-5.345 3.3231l-0.46248 0.95902-4.3641 0.05095c-3.8156 0.04455-7.6328 0.43471-9.5088 0.97188-0.40507 0.11599-0.64977-0.09406-1.2566-1.0787-0.94207-1.5286-2.487-2.488-4.3122-2.678-1.7888-0.18621-2.8076 0.03954-4.1124 0.91127-2.0415 1.3639-2.9383 4.0065-2.3412 6.8991l0.17801 0.86243-2.0962 1.3552c-1.1529 0.74538-2.2346 1.4558-2.4038 1.5788-0.20517 0.14913-0.58536 0.0098-1.1424-0.41882-2.7373-2.1059-6.0331-2.1448-8.2434-0.09741-1.5279 1.4153-2.1451 4.3671-1.374 6.5714 0.41022 1.1727 0.45251 1.0584-1.1589 3.1343-1.814 2.337-4.8518 7.3824-6.1837 10.27-1.1836 2.5664-1.2054 2.5941-2.1781 2.7573-4.852 0.81428-6.7329 6.8801-3.1627 10.199 0.59497 0.55316 1.3506 1.1293 1.6793 1.2803 0.51304 0.23577 0.57342 0.38306 0.42708 1.0417-0.22491 1.0123-0.21982 8.429 0.0065 9.4521 0.1702 0.76946 0.13061 0.82356-1.0406 1.4222-2.8032 1.4327-3.9097 5.0828-2.4265 8.0039 0.834 1.6425 2.9646 3.2033 4.3728 3.2033 0.37879 0 0.84142 0.70089 2.0737 3.1417 1.9339 3.8305 3.7684 6.8064 6.1509 9.9777l1.8035 2.4007-0.35393 1.5303c-0.53933 2.3319-6e-3 4.2327 1.6205 5.7763 1.5803 1.4996 3.4341 2.0085 5.6057 1.5388 0.9664-0.20905 1.5625-0.545 2.4461-1.3787l1.1684-1.1023 2.149 1.5519c1.182 0.85356 2.1837 1.5734 2.2262 1.5997 0.04242 0.0263-0.04829 0.51758-0.20158 1.0918-0.4027 1.5084-0.09324 3.2446 0.82036 4.6023 1.577 2.3438 3.9659 3.2518 6.6081 2.5118zm8.9418-5.4087c-2.6458-0.3853-4.1753-0.80293-4.3789-1.1956-0.11272-0.21742-0.27904-0.74372-0.36961-1.1696-0.18384-0.86434 0.25371-1.4585 5.0894-6.9113l2.4174-2.7259 1.1976 0.62669c1.603 0.83883 3.6209 0.85791 5.3302 0.05041l1.2198-0.57628 0.54908 0.49119c1.118 1.0001 6.4307 5.8467 6.9577 6.3473l0.54546 0.51809-1.6187 3.1964-2.2393 0.53769c-1.2316 0.29573-3.2016 0.65674-4.3778 0.80224-2.4163 0.29891-8.2959 0.30391-10.323 9e-3zm-16.686-6.3385-1.9057-1.4126 0.0015-31.047c1e-3 -17.076 0.0064-33.99 0.01245-37.588l0.01093-6.5403 1.9681-1.2832c1.0825-0.70574 2.0693-1.2832 2.1928-1.2832 0.12355 0 0.58457 0.22135 1.0245 0.49189s0.97913 0.49231 1.1982 0.49282c0.32962 6.25e-4 0.44687 0.50047 0.67953 2.8962 0.15465 1.5924 0.38403 3.6792 0.50974 4.6374 0.12571 0.95817 0.30145 2.788 0.39054 4.0662l0.16197 2.3241-0.90301 0.32935c-4.8977 1.7863-4.9356 9.0007-0.05782 11.024l1.1397 0.47284 2e-3 26.45-0.83576 0.2782c-3.3218 1.1058-5.0499 5.1601-3.5401 8.3058 0.59295 1.2354 2.137 2.656 3.3121 3.0472 0.99197 0.33021 0.97029-0.15633 0.32286 7.2462-0.60072 6.8684-0.66099 7.28-1.066 7.28-0.17545 0-0.83589 0.27721-1.4676 0.61602-0.63176 0.33881-1.1703 0.61412-1.1968 0.6118-0.02648-2e-3 -0.90573-0.6399-1.9539-1.4168zm8.6964 0.60038c-0.56477-0.294-1.0317-0.70088-1.0377-0.90416-0.0162-0.55213 1.198-13.626 1.2698-13.673 0.03404-0.02223 0.44069-0.19289 0.90367-0.37923s1.2026-0.65833 1.6436-1.0489l0.80178-0.71005 0.79942 0.56428c0.43968 0.31036 1.5983 1.1661 2.5747 1.9017l1.7752 1.3374-0.14155 1.1375c-0.08723 0.70092-0.0036 1.5887 0.21785 2.3131l0.3594 1.1756-1.505 1.6581c-0.82774 0.91194-2.5863 2.9055-3.9079 4.4302-1.3216 1.5246-2.4757 2.7631-2.5646 2.7522-0.08896-0.0109-0.62383-0.26042-1.1886-0.55442zm33.658-0.19971c-1.4054-0.74643-2.3819-0.85273-4.1196-0.44844l-1.0486 0.24396-1.883-1.8174c-1.0356-0.99956-2.953-2.7861-4.2608-3.9701-1.9445-1.7604-2.3366-2.2304-2.1516-2.5789 0.12438-0.23442 0.29831-0.9749 0.38651-1.6455 0.67332-5.1196-5.1052-8.5679-9.434-5.6297l-1.2458 0.84561-1.3834-1.0626c-0.76085-0.58445-1.9055-1.4204-2.5438-1.8577l-1.1604-0.79508-0.0023-1.6514c-0.0019-1.3868-0.12139-1.8609-0.74546-2.9585-0.71051-1.2497-2.5326-2.7586-3.331-2.7586-0.33896 0-0.34094-0.09408-0.38509-18.341l-0.02023-8.3619 0.77896-0.26454c1.2166-0.41315 2.3022-1.4231 3.0808-2.8661 0.57444-1.0646 0.71169-1.6161 0.7005-2.8151l-0.01391-1.4911 1.4957-1.0185c0.82264-0.56015 2.2245-1.538 3.1152-2.173l1.6195-1.1545 0.94566 0.62726c1.9902 1.3201 4.7036 1.3296 6.6608 0.0232 1.4471-0.96592 2.7131-3.0163 2.7131-4.394 0-0.50781 0.35525-0.65467 4.2141-1.7422 2.3178-0.65318 6.1252-1.7307 8.4609-2.3945 2.3357-0.66379 4.2892-1.1641 4.341-1.1118 0.09834 0.09919-4.417 4.3737-11.76 11.133-1.4723 1.3552-4.0543 3.748-5.7377 5.3173s-5.2594 4.8914-7.9467 7.3826c-7.7003 7.1384-12.208 11.396-12.296 11.613-0.09952 0.2468-0.11312 0.23355 3.623 3.5302 1.6795 1.482 4.263 3.8149 5.741 5.1843 2.5992 2.4083 6.2857 5.73 21.681 19.536 8.6442 7.7518 8.3791 7.2956 5.4389 9.3573-1.0059 0.70538-1.9129 1.2669-2.0155 1.2477-0.10256-0.0191-0.78333-0.35178-1.5128-0.73923zm-56.301-10.144c-2.0215-2.757-3.8417-5.6556-5.667-9.024-1.5657-2.8895-1.6328-3.0775-1.1857-3.3265 0.61194-0.34078 2.5956-2.3409 2.9324-2.9567 0.25537-0.46692 0.31757-0.46492 3.6034 0.11556l3.3435 0.59068v15.65l-0.72076 0.37594c-0.39642 0.20677-0.7804 0.37594-0.8533 0.37594-0.07289 0-0.72659-0.81022-1.4527-1.8005zm69.72 1.1226c-0.60464-0.20471-1.2245-0.44086-1.3774-0.52477-0.2257-0.12385-12.852-11.424-16.579-14.837-0.53746-0.49227-4.0553-3.6398-7.8175-6.9945s-6.9814-6.2327-7.1537-6.3955c-0.32012-0.30247 3.225-3.7716 14.618-14.305 2.3439-2.167 5.1961-4.8322 6.3382-5.9226 5.6635-5.4074 11.635-10.851 12.398-11.3 0.18406-0.10858 0.55077 0.09436 0.92516 0.512 0.78597 0.87677 4.9995 7.206 4.9995 7.5098 0 0.12491-0.27548 0.50496-0.61217 0.84456-1.7397 1.7547-2.2123 4.5862-1.1362 6.8071l0.5638 1.1635-6.3296 11.471-1.5854-0.08223c-2.6708-0.13854-4.9986 1.2584-5.9586 3.5759-0.19428 0.469-0.51535 0.81874-0.75162 0.81874-0.22685 0-3.4409-0.49459-7.1424-1.0991-8.3806-1.3686-9.8997-1.5327-10.39-1.122-0.51031 0.42717-0.47426 1.6552 0.05697 1.9409 0.38845 0.20895 10.07 1.8338 14.841 2.4908 2.9396 0.40479 2.8908 0.38231 3.3624 1.5493 0.4827 1.1946 1.8389 2.7169 2.972 3.3358 0.50978 0.27849 1.3375 0.40984 2.5825 0.40984 2.0744 0 2.9807-0.36423 4.4576-1.7915l0.91532-0.88451 3.1827 1.7001-0.14596 1.0032c-0.30465 2.0937 0.91349 4.6034 2.7657 5.6983 1.3214 0.78111 1.3297 0.72785-0.79464 5.1184-1.9292 3.9872-5.507 9.7895-5.9835 9.7036-0.06718-0.01213-0.61685-0.18952-1.2215-0.39423zm-69.991-18.919c-1.478-0.31101-2.7697-0.57505-2.8705-0.58675s-0.18322-0.13786-0.18322-0.28035c0-0.25023 5.7342-3.1866 6.2296-3.19 0.15126-0.0011 0.21466 0.88995 0.16646 2.3397-0.05364 1.6136-0.16755 2.3323-0.36645 2.3122-0.15873-0.0161-1.4979-0.28373-2.9759-0.59474zm-5.1302-4.3041c-0.38616-0.40655-1.2545-0.94701-1.9295-1.201-0.9677-0.3641-1.269-0.61177-1.4239-1.1705-0.25185-0.90831-0.31536-7.5342-0.0851-8.8776 0.15668-0.91408 0.262-1.0395 0.9884-1.177 0.44717-0.08461 1.2266-0.43692 1.7321-0.78291l0.91904-0.62906 1.121 0.64514c0.61654 0.35483 2.4705 1.3332 4.12 2.1743l2.999 1.5291-0.13484 6.7847-3.635 1.722c-1.9993 0.94709-3.7102 1.722-3.802 1.722-0.09182 0-0.4829-0.33263-0.86907-0.73918zm79.703-1.2029c-1.6411-0.88766-1.6484-0.89622-1.649-1.9486-6.2e-4 -1.0973-0.68128-2.7442-1.5128-3.6608l-0.47982-0.52887 2.5108-4.5225c1.3809-2.4874 2.791-5.0491 3.1336-5.6928 0.44105-0.82876 0.72975-1.1254 0.98925-1.0164 0.20155 0.08466 0.78306 0.23684 1.2922 0.33817s0.96465 0.22604 1.0121 0.27714c0.0475 0.0511 0.27144 1.1463 0.49769 2.4338 0.47475 2.7015 0.76409 9.2639 0.51281 11.631l-0.17176 1.6177-0.93056 0.15009c-0.51181 0.08255-1.4912 0.53906-2.1764 1.0145-0.68522 0.47542-1.276 0.84979-1.3128 0.83194s-0.80872-0.43366-1.7153-0.92403zm-74.695-12.968c-1.8139-0.95005-3.2732-1.8371-3.2428-1.9713 0.03039-0.13415 0.12549-0.71625 0.21132-1.2936 0.11894-0.79997 0.28012-1.0784 0.67763-1.1705 0.28686-0.06646 1.6687-0.39598 3.0708-0.73227s2.5868-0.57355 2.6327-0.52723c0.04592 0.04631 0.05306 1.7352 0.01587 3.7532l-0.06762 3.669zm-4.4153-8.0239c-0.59475-0.63121-1.2766-1.2517-1.5152-1.3789-0.40419-0.21546-0.38377-0.34274 0.29844-1.8603 1.1232-2.4985 3.2904-6.1842 5.4378-9.2477 1.0687-1.5246 1.9948-2.7721 2.058-2.7721s0.43931 0.16917 0.83573 0.37594l0.72076 0.37594v14.023l-0.54967 0.12572c-0.30232 0.06914-1.822 0.43627-3.3771 0.81583l-2.8274 0.69012zm30.676-8.6071c-0.24369-0.2716-1.0274-0.7822-1.7417-1.1347-1.5183-0.74927-1.3165 0.014631-2.0433-7.735-0.28594-3.0493-0.55848-5.7412-0.60564-5.982-0.06167-0.31494 0.247-0.60794 1.0994-1.0436l1.1852-0.60575 9.0444 7.3851-0.36317 0.87669c-0.3972 0.95885-0.49844 2.5384-0.23903 3.7296 0.15953 0.7326 0.08487 0.81957-1.9854 2.3129-1.1832 0.8534-2.462 1.8079-2.8418 2.1212-0.84182 0.69427-0.94918 0.69965-1.509 0.0757zm16.997-9.7945-1.0613-1.3835 2.8705-5.5194 1.7483-0.11317c2.3886-0.15462 3.9273-1.0849 5.0945-3.08 0.01796-0.03069 1.3164 0.60215 2.8855 1.4063 3.1965 1.6382 6.8873 4.0033 7.0936 4.5456 0.17291 0.45448-0.5684 0.68937-14.495 4.5929-1.5452 0.4331-2.8691 0.82063-2.942 0.86118-0.07292 0.04055-0.61017-0.54886-1.1939-1.3098zm-9.9676-2.5114c-1.406-1.1233-6.4341-5.2564-7.2435-5.9541-0.39514-0.34064 0.40869-2.4763 1.0205-2.7112 1.1152-0.42816 6.5824-0.95813 9.8841-0.95813h3.3751l0.45583 1.0726c0.2507 0.58993 0.8145 1.4846 1.2529 1.9882l0.79705 0.91563-2.9855 5.7567-1.5067 0.17295c-0.8287 0.09512-1.9184 0.3784-2.4216 0.62951l-0.91491 0.45657z" fill="#203a55" stroke-width=".18401"/>
</svg>
