<?xml version="1.0" encoding="UTF-8"?>
<svg width="256" height="256" version="1.1" viewBox="0 0 256 256" xmlns="http://www.w3.org/2000/svg">
 <circle cx="128" cy="128" r="118" fill="#fff" stroke-width=".17346"/>
 <path d="m117.97 255.83c-0.80619-0.1192-4.636-0.67112-8.5107-1.2265-26.849-3.8481-53.637-17.341-72.401-36.467-20.393-20.786-32.702-45.962-36.375-74.395-1.1646-9.0167-0.79192-27.483 0.7256-35.95 4.7063-26.257 17.093-50.217 35.686-69.027 22.232-22.491 52.017-36.169 83.761-38.463 8.2487-0.59626 14.482-0.3281 24.276 1.0444 36.167 5.0682 69.96 26.515 90.073 57.164 14.012 21.354 20.794 44.146 20.794 69.89 0 42.139-20.357 81.406-54.178 104.5-16.809 11.48-35.532 18.87-55.756 22.008-4.9147 0.76252-24.759 1.4102-28.094 0.917zm-17.639-26.359c3.2978-0.92356 4.9224-2.2838 7.7885-6.5213 0.58757-0.86872 0.79468-0.8632 5.9626 0.1586 6.7183 1.3283 17.044 1.7858 23.188 1.0272 4.5253-0.55878 13.364-2.2226 14.838-2.7931 0.50349-0.1948 1.041 0.312 1.7011 1.604 2.2072 4.3205 5.9672 6.5773 10.929 6.5599 8.0582-0.0284 12.908-6.3893 11.452-15.02l-0.33253-1.9713 3.8657-2.5573c3.8643-2.5563 3.866-2.5569 4.7695-1.5492 2.4858 2.7725 8.6017 4.1516 12.021 2.7107 4.8621-2.0491 7.694-6.2022 7.694-11.284 0-1.5818-0.32682-3.6649-0.72626-4.6291l-0.72626-1.7532 3.091-4.5144c4.2843-6.2572 7.657-12.34 11.259-20.308 3.0295-6.701 3.099-6.8023 5.067-7.3884 6.7733-2.0172 10.318-8.4262 8.3411-15.081-0.71996-2.4238-3.4048-5.605-5.748-6.8107l-1.8126-0.93272 0.4398-3.8552c0.61196-5.3644 0.091-16.002-1.1415-23.306-0.79912-4.7357-0.89816-6.191-0.43194-6.3477 1.454-0.48886 4.6226-3.9739 5.6686-6.2349 2.0077-4.3395 1.2416-8.7032-2.2278-12.689-2.1955-2.5222-5.1075-3.8173-8.6253-3.8361l-2.8995-0.0156-2.9234-4.948c-1.6079-2.7214-4.2845-6.6841-5.9481-8.8061l-3.0246-3.8581 1.0405-2.1213c1.4172-2.8892 1.4149-7.8008-4e-3 -10.544-2.3042-4.4509-5.6681-6.3785-11.16-6.3949-3.4931-0.0104-4.1741 0.14272-5.9748 1.3435-1.1178 0.74538-2.2133 1.3552-2.4345 1.3552s-2.5894-1.4554-5.2629-3.2342c-2.6734-1.7788-7.5542-4.5634-10.846-6.1881-5.349-2.6399-5.9853-3.0889-5.9853-4.2241 0-5.9827-5.8479-11.478-12.215-11.478-4.69 0-8.6816 2.4817-10.69 6.6463l-0.92496 1.918-8.7282 0.1019c-7.6312 0.0891-15.266 0.86941-19.018 1.9438-0.81014 0.23198-1.2995-0.18812-2.5132-2.1574-1.8841-3.0571-4.974-4.976-8.6245-5.356-3.5776-0.37243-5.6152 0.07908-8.2248 1.8225-4.083 2.7278-5.8765 8.013-4.6824 13.798l0.35601 1.7249-4.1925 2.7105c-2.3059 1.4908-4.4692 2.9116-4.8075 3.1575-0.41035 0.29826-1.1707 0.0196-2.2849-0.83763-5.4746-4.2117-12.066-4.2896-16.487-0.19482-3.0557 2.8306-4.2902 8.7343-2.7481 13.143 0.82044 2.3455 0.90501 2.1167-2.3178 6.2687-3.6281 4.6741-9.7036 14.765-12.367 20.54-2.3672 5.1328-2.4109 5.1881-4.3562 5.5146-9.704 1.6286-13.466 13.76-6.3254 20.399 1.1899 1.1063 2.7013 2.2586 3.3585 2.5607 1.0261 0.47154 1.1468 0.76612 0.85416 2.0835-0.44982 2.0246-0.43963 16.858 0.013 18.904 0.3404 1.5389 0.26122 1.6471-2.0811 2.8443-5.6063 2.8655-7.8195 10.166-4.8531 16.008 1.668 3.285 5.9293 6.4066 8.7455 6.4066 0.75758 0 1.6828 1.4018 4.1474 6.2834 3.8678 7.661 7.5368 13.613 12.302 19.956l3.607 4.8014-0.70786 3.0605c-1.0787 4.6638-0.012 8.4654 3.241 11.553 3.1605 2.9993 6.8682 4.017 11.211 3.0775 1.9328-0.4181 3.1249-1.09 4.8923-2.7575l2.3368-2.2047 4.2981 3.1039c2.3639 1.7071 4.3675 3.1469 4.4523 3.1994 0.08484 0.0526-0.09658 1.0352-0.40316 2.1835-0.8054 3.0169-0.18648 6.4891 1.6407 9.2046 3.1541 4.6875 7.9319 6.5036 13.216 5.0237zm17.884-10.817c-5.2915-0.7706-8.3507-1.6059-8.7578-2.3912-0.22543-0.43484-0.55809-1.4874-0.73923-2.3391-0.36767-1.7287 0.50741-2.917 10.179-13.823l4.8349-5.4519 2.3952 1.2534c3.2059 1.6776 7.2418 1.7158 10.66 0.10082l2.4397-1.1526 1.0982 0.98238c2.236 2.0002 12.861 11.693 13.915 12.694l1.0909 1.0362-1.6187 3.1964-1.6187 3.1964-4.4785 1.0754c-2.4632 0.59146-6.4032 1.3135-8.7556 1.6045-4.8325 0.59782-16.592 0.60782-20.645 0.018zm-33.371-12.677-3.8115-2.8252 3e-3 -62.095c2e-3 -34.152 0.0128-67.981 0.0249-75.175l0.02186-13.081 3.9363-2.5663c2.165-1.4115 4.1385-2.5663 4.3856-2.5663 0.24709 0 1.1691 0.44271 2.049 0.98379 0.87986 0.54108 1.9583 0.98462 2.3965 0.98563 0.65925 0.0012 0.89374 1.0009 1.3591 5.7924 0.30929 3.1848 0.76805 7.3585 1.0195 9.2748 0.25143 1.9163 0.6029 5.576 0.78107 8.1325l0.32394 4.6482-1.806 0.65871c-9.7955 3.5727-9.8711 18.001-0.11564 22.049l2.2794 0.94567 2e-3 26.451 2e-3 26.451-1.6715 0.55641c-6.6437 2.2115-10.1 10.32-7.0803 16.612 1.1859 2.4709 4.274 5.312 6.6242 6.0944 1.9839 0.66041 1.9406-0.31266 0.64573 14.492-1.2014 13.737-1.322 14.56-2.132 14.56-0.35089 0-1.6718 0.55442-2.9353 1.232-1.2635 0.67762-2.3406 1.2282-2.3936 1.2236-0.05296-4e-3 -1.8115-1.2798-3.9078-2.8337zm17.393 1.2008c-1.1296-0.588-2.0635-1.4018-2.0754-1.8083-0.0324-1.1043 2.3959-27.253 2.5396-27.347 0.0681-0.0445 0.88137-0.38578 1.8073-0.75847 0.92596-0.37268 2.4052-1.3166 3.2871-2.0977l1.6036-1.4201 1.5988 1.1286c0.87936 0.62072 3.1966 2.3322 5.1493 3.8034l3.5505 2.6748-0.2831 2.275c-0.17446 1.4018-7e-3 3.1773 0.4357 4.6262l0.71881 2.3512-3.01 3.3162c-1.6555 1.8239-5.1726 5.811-7.8158 8.8603-2.6432 3.0493-4.9514 5.5263-5.1293 5.5044-0.17792-0.0218-1.2477-0.52084-2.3772-1.1088zm67.316-0.39942c-2.8108-1.4929-4.7638-1.7055-8.2392-0.89688l-2.0972 0.48792-3.766-3.6348c-2.0713-1.9991-5.906-5.5722-8.5215-7.9402-3.889-3.5209-4.6731-4.4607-4.3032-5.1578 0.24877-0.46883 0.59662-1.9498 0.77302-3.291 1.3466-10.239-10.21-17.136-18.868-11.259l-2.4916 1.6912-2.7667-2.1253c-1.5217-1.1689-3.8111-2.8409-5.0876-3.7154l-2.3208-1.5902-5e-3 -3.3028c-4e-3 -2.7735-0.24278-3.7218-1.4909-5.917-1.421-2.4993-5.0651-5.5172-6.662-5.5172-0.67792 0-0.68187-0.18816-0.77018-36.683l-0.0405-16.724 1.5579-0.52908c2.4331-0.8263 4.6043-2.8462 6.1616-5.7321 1.1489-2.1291 1.4234-3.2322 1.401-5.6302l-0.0278-2.9823 2.9914-2.0369c1.6453-1.1203 4.4489-3.076 6.2304-4.3459l3.2389-2.309 1.8913 1.2545c3.9804 2.6402 9.4073 2.6591 13.322 0.0464 2.8942-1.9318 5.4263-6.0326 5.4263-8.788 0-1.0156 0.7105-1.3093 8.4283-3.4843 4.6356-1.3064 12.25-3.4614 16.922-4.789 4.6714-1.3276 8.5783-2.3282 8.682-2.2236 0.19668 0.19838-8.8339 8.7474-23.52 22.266-2.9446 2.7105-8.1085 7.496-11.475 10.635-3.3668 3.1385-10.519 9.7829-15.893 14.765-15.401 14.277-24.416 22.792-24.591 23.226-0.19904 0.4936-0.22623 0.4671 7.246 7.0604 3.3591 2.964 8.526 7.6298 11.482 10.369 5.1985 4.8165 12.571 11.46 43.363 39.072 17.288 15.504 16.758 14.591 10.878 18.715-2.0119 1.4108-3.8258 2.5337-4.0309 2.4955-0.20511-0.0382-1.5667-0.70356-3.0257-1.4785zm-112.6-20.287c-4.0429-5.5141-7.6834-11.311-11.334-18.048-3.1315-5.779-3.2655-6.155-2.3713-6.653 1.2239-0.68156 5.1912-4.6818 5.8648-5.9134 0.51074-0.93383 0.63513-0.92984 7.2068 0.23112l6.6871 1.1814v31.299l-1.4415 0.75188c-0.79284 0.41354-1.5608 0.75188-1.7066 0.75188-0.14578 0-1.4532-1.6204-2.9053-3.601zm139.44 2.2452c-1.2093-0.40942-2.4489-0.88172-2.7547-1.0495-0.45139-0.2477-25.704-22.848-33.157-29.674-1.0749-0.98454-8.1107-7.2796-15.635-13.989s-13.963-12.465-14.307-12.791c-0.64024-0.60494 6.45-7.5432 29.237-28.61 4.6878-4.334 10.392-9.6643 12.676-11.845 11.327-10.815 23.271-21.701 24.795-22.601 0.36811-0.21717 1.1015 0.18872 1.8503 1.024 1.572 1.7535 9.999 14.412 9.999 15.02 0 0.24981-0.55096 1.0099-1.2243 1.6891-3.4794 3.5095-4.4246 9.1724-2.2723 13.614l1.1276 2.3271-12.659 22.943-3.1708-0.16446c-5.3416-0.27708-9.9972 2.5168-11.917 7.1518-0.38857 0.93801-1.0307 1.6375-1.5032 1.6375-0.45369 0-6.8819-0.98917-14.285-2.1982-16.761-2.7373-19.799-3.0654-20.781-2.244-1.0206 0.85435-0.94852 3.3103 0.11394 3.8818 0.77691 0.4179 20.139 3.6675 29.682 4.9816 5.8792 0.80958 5.7816 0.76461 6.7248 3.0987 0.96539 2.3892 3.6779 5.4337 5.944 6.6717 1.0196 0.55697 2.6749 0.81968 5.1649 0.81968 4.1488 0 5.9614-0.72846 8.9153-3.5829l1.8306-1.769 6.3654 3.4002-0.29192 2.0063c-0.6093 4.1873 1.827 9.2069 5.5315 11.397 2.6429 1.5622 2.6594 1.4557-1.5893 10.237-3.8584 7.9744-11.014 19.579-11.967 19.407-0.13436-0.0243-1.2337-0.37903-2.443-0.78845zm-139.98-37.839c-2.956-0.62202-5.5394-1.1501-5.741-1.1735s-0.36645-0.27572-0.36645-0.5607c0-0.50046 11.468-6.3731 12.459-6.3801 0.30253-2e-3 0.42931 1.7799 0.33292 4.6794-0.10728 3.2273-0.33509 4.6646-0.73289 4.6243-0.31747-0.0322-2.9958-0.56746-5.9518-1.1895zm-10.26-8.6082c-0.77233-0.8131-2.5089-1.894-3.8591-2.402-1.9354-0.7282-2.538-1.2235-2.8478-2.3409-0.5037-1.8166-0.63073-15.068-0.1702-17.755 0.31335-1.8282 0.524-2.079 1.9768-2.3539 0.89434-0.16922 2.4532-0.87385 3.4642-1.5658l1.8381-1.2581 2.242 1.2903c1.2331 0.70966 4.9411 2.6665 8.2399 4.3485l5.998 3.0582-0.13484 6.7847-0.13484 6.7847-7.2701 3.444c-3.9985 1.8942-7.4203 3.444-7.604 3.444-0.18364 0-0.96581-0.66526-1.7381-1.4784zm159.41-2.4058c-3.2822-1.7753-3.2967-1.7924-3.298-3.8972-1e-3 -2.1946-1.3626-5.4884-3.0256-7.3215l-0.95964-1.0578 5.0216-9.045c2.7619-4.9747 5.5821-10.098 6.2672-11.386 0.8821-1.6575 1.4595-2.2507 1.9785-2.0327 0.4031 0.16932 1.5661 0.47367 2.5845 0.67633 1.0184 0.20267 1.9293 0.45209 2.0242 0.55428 0.095 0.1022 0.54288 2.2926 0.99538 4.8676 0.9495 5.4031 1.5282 18.528 1.0256 23.261l-0.34352 3.2355-1.8611 0.30017c-1.0236 0.1651-2.9824 1.0781-4.3528 2.029-1.3704 0.95083-2.552 1.6996-2.6256 1.6639-0.0736-0.0357-1.6174-0.86732-3.4306-1.8481zm-149.39-25.936c-3.6278-1.9001-6.5463-3.6742-6.4855-3.9425 0.06078-0.2683 0.25098-1.4325 0.42264-2.5871 0.23787-1.5999 0.56025-2.1568 1.3553-2.341 0.57373-0.13292 3.3375-0.79196 6.1417-1.4645 2.8042-0.67259 5.1737-1.1471 5.2655-1.0545 0.09184 0.0926 0.10612 3.4705 0.03174 7.5064l-0.13524 7.338zm-8.8307-16.048c-1.1895-1.2624-2.5532-2.5035-3.0305-2.7579-0.80838-0.43092-0.76754-0.68549 0.59688-3.7206 2.2464-4.997 6.5808-12.368 10.876-18.495 2.1374-3.0493 3.9896-5.5442 4.1161-5.5442s0.87861 0.33834 1.6715 0.75188l1.4415 0.75187v28.046l-1.0993 0.25143c-0.60464 0.13828-3.644 0.87254-6.7541 1.6317l-5.6548 1.3802zm61.353-17.214c-0.48739-0.5432-2.0549-1.5644-3.4834-2.2693-3.0367-1.4985-2.6331 0.02926-4.0865-15.47-0.57189-6.0986-1.117-11.482-1.2113-11.964-0.12334-0.62987 0.49399-1.2159 2.1988-2.0872l2.3703-1.2115 18.089 14.77-0.72634 1.7534c-0.7944 1.9177-0.99687 5.0767-0.47807 7.4592 0.31906 1.4652 0.16974 1.6391-3.9709 4.6257-2.3663 1.7068-4.9239 3.6158-5.6835 4.2423-1.6836 1.3885-1.8984 1.3993-3.018 0.1514zm33.994-19.589-2.1227-2.7671 2.8705-5.5194 2.8705-5.5194 3.4966-0.22634c4.7773-0.30924 7.8547-2.1698 10.189-6.16 0.0359-0.06138 2.6328 1.2043 5.771 2.8126 6.3931 3.2765 13.775 8.0066 14.187 9.0912 0.34582 0.90896-1.1368 1.3787-28.99 9.1858-3.0904 0.86619-5.7382 1.6413-5.884 1.7224-0.14584 0.0811-1.2203-1.0977-2.3878-2.6196zm-19.935-5.0229c-2.812-2.2466-12.868-10.513-14.487-11.908-0.79029-0.68127 0.81738-4.9526 2.0409-5.4223 2.2303-0.85632 13.165-1.9163 19.768-1.9163h6.7501l0.91167 2.1452c0.50141 1.1799 1.629 2.9693 2.5058 3.9764l1.5941 1.8313-2.9855 5.7567-2.9855 5.7567-3.0134 0.34589c-1.6574 0.19024-3.8368 0.7568-4.8432 1.259l-1.8298 0.91314z" fill="#203a55" stroke-width=".36803"/>
</svg>
